<mxfile host="app.diagrams.net" modified="2020-04-10T07:54:08.373Z" agent="5.0 (Windows NT 10.0; Win64; x64) AppleWebKit/537.36 (KHTML, like Gecko) Chrome/80.0.3987.163 Safari/537.36" etag="q4D3PlI_VY9pZNfx_BKN" version="12.9.10" type="github">
  <diagram name="Page-1" id="a7904f86-f2b4-8e86-fa97-74104820619b">
    <mxGraphModel dx="1114" dy="953" grid="1" gridSize="10" guides="1" tooltips="1" connect="1" arrows="1" fold="1" page="1" pageScale="1" pageWidth="1654" pageHeight="1169" background="#ffffff" math="0" shadow="0">
      <root>
        <mxCell id="0" />
        <mxCell id="1" parent="0" />
        <mxCell id="BQK6jB8z2mIOrAZ9bxbN-1" value="dwm" style="text;strokeColor=none;fillColor=none;html=1;fontSize=24;fontStyle=1;verticalAlign=middle;align=center;" vertex="1" parent="1">
          <mxGeometry x="1245" y="20" width="100" height="40" as="geometry" />
        </mxCell>
        <mxCell id="BQK6jB8z2mIOrAZ9bxbN-2" value="dwa" style="text;strokeColor=none;fillColor=none;html=1;fontSize=24;fontStyle=1;verticalAlign=middle;align=center;" vertex="1" parent="1">
          <mxGeometry x="710" y="20" width="100" height="40" as="geometry" />
        </mxCell>
        <mxCell id="BQK6jB8z2mIOrAZ9bxbN-3" value="dwd" style="text;strokeColor=none;fillColor=none;html=1;fontSize=24;fontStyle=1;verticalAlign=middle;align=center;" vertex="1" parent="1">
          <mxGeometry x="180" y="20" width="100" height="40" as="geometry" />
        </mxCell>
        <mxCell id="BQK6jB8z2mIOrAZ9bxbN-6" value="&lt;p style=&quot;margin: 0px ; margin-top: 4px ; text-align: center ; text-decoration: underline&quot;&gt;&lt;b&gt;&lt;font style=&quot;font-size: 14px&quot;&gt;dwh_dwm.&lt;/font&gt;&lt;/b&gt;&lt;b style=&quot;font-size: 14px&quot;&gt;&lt;u&gt;cinst_settle_loan&lt;/u&gt;&lt;/b&gt;&lt;/p&gt;&lt;p style=&quot;margin: 0px ; margin-top: 4px ; text-align: center ; text-decoration: underline&quot;&gt;&lt;b&gt;&lt;br&gt;&lt;/b&gt;&lt;/p&gt;" style="verticalAlign=top;align=left;overflow=fill;fontSize=12;fontFamily=Helvetica;html=1;rounded=0;shadow=0;comic=0;labelBackgroundColor=none;strokeWidth=1" vertex="1" parent="1">
          <mxGeometry x="1172.5" y="1780" width="250" height="30" as="geometry" />
        </mxCell>
        <mxCell id="BQK6jB8z2mIOrAZ9bxbN-7" value="&lt;p style=&quot;margin: 0px ; margin-top: 4px ; text-align: center ; text-decoration: underline&quot;&gt;&lt;b&gt;&lt;font style=&quot;font-size: 14px&quot;&gt;dwh_dwm.&lt;/font&gt;&lt;/b&gt;&lt;b style=&quot;font-size: 14px&quot;&gt;&lt;u&gt;cinst_settle_repay&lt;/u&gt;&lt;/b&gt;&lt;/p&gt;" style="verticalAlign=top;align=left;overflow=fill;fontSize=12;fontFamily=Helvetica;html=1;rounded=0;shadow=0;comic=0;labelBackgroundColor=none;strokeWidth=1" vertex="1" parent="1">
          <mxGeometry x="1172.5" y="630" width="245" height="30" as="geometry" />
        </mxCell>
        <mxCell id="BQK6jB8z2mIOrAZ9bxbN-9" value="&lt;p style=&quot;margin: 0px ; margin-top: 4px ; text-align: center ; text-decoration: underline&quot;&gt;&lt;b&gt;&lt;font style=&quot;font-size: 14px&quot;&gt;dwh_dwm.&lt;/font&gt;&lt;/b&gt;&lt;b style=&quot;font-size: 14px&quot;&gt;&lt;u&gt;settle_rc_call_record&lt;/u&gt;&lt;/b&gt;&lt;/p&gt;" style="verticalAlign=top;align=left;overflow=fill;fontSize=12;fontFamily=Helvetica;html=1;rounded=0;shadow=0;comic=0;labelBackgroundColor=none;strokeWidth=1" vertex="1" parent="1">
          <mxGeometry x="1146.25" y="210" width="297.5" height="30" as="geometry" />
        </mxCell>
        <mxCell id="BQK6jB8z2mIOrAZ9bxbN-15" style="edgeStyle=orthogonalEdgeStyle;rounded=0;orthogonalLoop=1;jettySize=auto;html=1;entryX=0;entryY=0.25;entryDx=0;entryDy=0;" edge="1" parent="1" source="BQK6jB8z2mIOrAZ9bxbN-11" target="BQK6jB8z2mIOrAZ9bxbN-9">
          <mxGeometry relative="1" as="geometry">
            <Array as="points">
              <mxPoint x="1050" y="185" />
              <mxPoint x="1050" y="218" />
            </Array>
          </mxGeometry>
        </mxCell>
        <mxCell id="BQK6jB8z2mIOrAZ9bxbN-11" value="&lt;p style=&quot;margin: 0px ; margin-top: 4px ; text-align: center ; text-decoration: underline&quot;&gt;&lt;b&gt;&lt;font style=&quot;font-size: 14px&quot;&gt;dwh_dwd.&lt;/font&gt;&lt;/b&gt;&lt;b style=&quot;font-size: 14px&quot;&gt;&lt;u&gt;risk_datasource_i_call_record&lt;/u&gt;&lt;/b&gt;&lt;/p&gt;&lt;p style=&quot;margin: 0px ; margin-top: 4px ; text-align: center ; text-decoration: underline&quot;&gt;&lt;b&gt;&lt;br&gt;&lt;/b&gt;&lt;/p&gt;" style="verticalAlign=top;align=left;overflow=fill;fontSize=12;fontFamily=Helvetica;html=1;rounded=0;shadow=0;comic=0;labelBackgroundColor=none;strokeWidth=1" vertex="1" parent="1">
          <mxGeometry x="65" y="170" width="320" height="30" as="geometry" />
        </mxCell>
        <mxCell id="BQK6jB8z2mIOrAZ9bxbN-16" style="edgeStyle=orthogonalEdgeStyle;rounded=0;orthogonalLoop=1;jettySize=auto;html=1;entryX=0;entryY=0.75;entryDx=0;entryDy=0;" edge="1" parent="1" source="BQK6jB8z2mIOrAZ9bxbN-12" target="BQK6jB8z2mIOrAZ9bxbN-9">
          <mxGeometry relative="1" as="geometry">
            <mxPoint x="1080" y="280" as="targetPoint" />
            <Array as="points">
              <mxPoint x="1050" y="265" />
              <mxPoint x="1050" y="233" />
            </Array>
          </mxGeometry>
        </mxCell>
        <mxCell id="BQK6jB8z2mIOrAZ9bxbN-12" value="&lt;p style=&quot;margin: 0px ; margin-top: 4px ; text-align: center ; text-decoration: underline&quot;&gt;&lt;b&gt;&lt;font style=&quot;font-size: 14px&quot;&gt;dwh_dwd.&lt;/font&gt;&lt;/b&gt;&lt;b style=&quot;font-size: 14px&quot;&gt;&lt;u&gt;spider_monitor_i_auth_item_req_log&lt;/u&gt;&lt;/b&gt;&lt;/p&gt;&lt;p style=&quot;margin: 0px ; margin-top: 4px ; text-align: center ; text-decoration: underline&quot;&gt;&lt;b&gt;&lt;br&gt;&lt;/b&gt;&lt;/p&gt;" style="verticalAlign=top;align=left;overflow=fill;fontSize=12;fontFamily=Helvetica;html=1;rounded=0;shadow=0;comic=0;labelBackgroundColor=none;strokeWidth=1" vertex="1" parent="1">
          <mxGeometry x="65" y="250" width="330" height="30" as="geometry" />
        </mxCell>
        <mxCell id="BQK6jB8z2mIOrAZ9bxbN-31" style="edgeStyle=orthogonalEdgeStyle;rounded=0;orthogonalLoop=1;jettySize=auto;html=1;entryX=0;entryY=0;entryDx=0;entryDy=0;" edge="1" parent="1" source="BQK6jB8z2mIOrAZ9bxbN-19" target="BQK6jB8z2mIOrAZ9bxbN-6">
          <mxGeometry relative="1" as="geometry">
            <Array as="points">
              <mxPoint x="750" y="1184" />
              <mxPoint x="1050" y="1184" />
              <mxPoint x="1050" y="1780" />
            </Array>
          </mxGeometry>
        </mxCell>
        <mxCell id="BQK6jB8z2mIOrAZ9bxbN-19" value="&lt;p style=&quot;margin: 0px ; margin-top: 4px ; text-align: center ; text-decoration: underline&quot;&gt;&lt;b&gt;&lt;font style=&quot;font-size: 14px&quot;&gt;dwh_dwa.&lt;/font&gt;&lt;/b&gt;&lt;b style=&quot;font-size: 14px&quot;&gt;&lt;u&gt;fact_loan&lt;/u&gt;&lt;/b&gt;&lt;/p&gt;&lt;p style=&quot;margin: 0px ; margin-top: 4px ; text-align: center ; text-decoration: underline&quot;&gt;&lt;b&gt;&lt;br&gt;&lt;/b&gt;&lt;/p&gt;" style="verticalAlign=top;align=left;overflow=fill;fontSize=12;fontFamily=Helvetica;html=1;rounded=0;shadow=0;comic=0;labelBackgroundColor=none;strokeWidth=1" vertex="1" parent="1">
          <mxGeometry x="590" y="1169" width="320" height="30" as="geometry" />
        </mxCell>
        <mxCell id="BQK6jB8z2mIOrAZ9bxbN-32" style="edgeStyle=orthogonalEdgeStyle;rounded=0;orthogonalLoop=1;jettySize=auto;html=1;entryX=0;entryY=0.25;entryDx=0;entryDy=0;" edge="1" parent="1" source="BQK6jB8z2mIOrAZ9bxbN-20" target="BQK6jB8z2mIOrAZ9bxbN-6">
          <mxGeometry relative="1" as="geometry" />
        </mxCell>
        <mxCell id="BQK6jB8z2mIOrAZ9bxbN-20" value="&lt;p style=&quot;margin: 4px 0px 0px ; text-align: center&quot;&gt;&lt;span style=&quot;font-size: 14px&quot;&gt;&lt;b&gt;&lt;u&gt;dwh_dwa.fact_loan_extend&lt;/u&gt;&lt;/b&gt;&lt;/span&gt;&lt;br&gt;&lt;/p&gt;" style="verticalAlign=top;align=left;overflow=fill;fontSize=12;fontFamily=Helvetica;html=1;rounded=0;shadow=0;comic=0;labelBackgroundColor=none;strokeWidth=1" vertex="1" parent="1">
          <mxGeometry x="600" y="1680" width="320" height="30" as="geometry" />
        </mxCell>
        <mxCell id="BQK6jB8z2mIOrAZ9bxbN-27" style="edgeStyle=orthogonalEdgeStyle;rounded=0;orthogonalLoop=1;jettySize=auto;html=1;" edge="1" parent="1" source="BQK6jB8z2mIOrAZ9bxbN-21" target="BQK6jB8z2mIOrAZ9bxbN-7">
          <mxGeometry relative="1" as="geometry" />
        </mxCell>
        <mxCell id="BQK6jB8z2mIOrAZ9bxbN-21" value="&lt;p style=&quot;margin: 4px 0px 0px ; text-align: center&quot;&gt;&lt;span style=&quot;font-size: 14px&quot;&gt;&lt;b&gt;&lt;u&gt;dwh_dwa.fact_repay&lt;/u&gt;&lt;/b&gt;&lt;/span&gt;&lt;br&gt;&lt;/p&gt;" style="verticalAlign=top;align=left;overflow=fill;fontSize=12;fontFamily=Helvetica;html=1;rounded=0;shadow=0;comic=0;labelBackgroundColor=none;strokeWidth=1" vertex="1" parent="1">
          <mxGeometry x="590" y="630" width="320" height="30" as="geometry" />
        </mxCell>
        <mxCell id="BQK6jB8z2mIOrAZ9bxbN-28" style="edgeStyle=orthogonalEdgeStyle;rounded=0;orthogonalLoop=1;jettySize=auto;html=1;entryX=0;entryY=0.75;entryDx=0;entryDy=0;" edge="1" parent="1" source="BQK6jB8z2mIOrAZ9bxbN-22" target="BQK6jB8z2mIOrAZ9bxbN-7">
          <mxGeometry relative="1" as="geometry">
            <Array as="points">
              <mxPoint x="1050" y="995" />
              <mxPoint x="1050" y="653" />
            </Array>
          </mxGeometry>
        </mxCell>
        <mxCell id="BQK6jB8z2mIOrAZ9bxbN-22" value="&lt;p style=&quot;margin: 4px 0px 0px ; text-align: center&quot;&gt;&lt;span style=&quot;font-size: 14px&quot;&gt;&lt;b&gt;&lt;u&gt;dwh_dwa.fact_repay_extend&lt;/u&gt;&lt;/b&gt;&lt;/span&gt;&lt;br&gt;&lt;/p&gt;" style="verticalAlign=top;align=left;overflow=fill;fontSize=12;fontFamily=Helvetica;html=1;rounded=0;shadow=0;comic=0;labelBackgroundColor=none;strokeWidth=1" vertex="1" parent="1">
          <mxGeometry x="590" y="980" width="320" height="30" as="geometry" />
        </mxCell>
        <mxCell id="BQK6jB8z2mIOrAZ9bxbN-33" style="edgeStyle=orthogonalEdgeStyle;rounded=0;orthogonalLoop=1;jettySize=auto;html=1;entryX=0;entryY=0.5;entryDx=0;entryDy=0;" edge="1" parent="1" source="BQK6jB8z2mIOrAZ9bxbN-23" target="BQK6jB8z2mIOrAZ9bxbN-6">
          <mxGeometry relative="1" as="geometry" />
        </mxCell>
        <mxCell id="BQK6jB8z2mIOrAZ9bxbN-23" value="&lt;p style=&quot;margin: 4px 0px 0px ; text-align: center&quot;&gt;&lt;span style=&quot;font-size: 14px&quot;&gt;&lt;b&gt;&lt;u&gt;dwh_dwa.fact_apply&lt;/u&gt;&lt;/b&gt;&lt;/span&gt;&lt;br&gt;&lt;/p&gt;" style="verticalAlign=top;align=left;overflow=fill;fontSize=12;fontFamily=Helvetica;html=1;rounded=0;shadow=0;comic=0;labelBackgroundColor=none;strokeWidth=1" vertex="1" parent="1">
          <mxGeometry x="600" y="1780" width="320" height="30" as="geometry" />
        </mxCell>
        <mxCell id="BQK6jB8z2mIOrAZ9bxbN-34" style="edgeStyle=orthogonalEdgeStyle;rounded=0;orthogonalLoop=1;jettySize=auto;html=1;entryX=0;entryY=0.75;entryDx=0;entryDy=0;" edge="1" parent="1" source="BQK6jB8z2mIOrAZ9bxbN-24" target="BQK6jB8z2mIOrAZ9bxbN-6">
          <mxGeometry relative="1" as="geometry" />
        </mxCell>
        <mxCell id="BQK6jB8z2mIOrAZ9bxbN-24" value="&lt;p style=&quot;margin: 4px 0px 0px ; text-align: center&quot;&gt;&lt;span style=&quot;font-size: 14px&quot;&gt;&lt;b&gt;&lt;u&gt;dwh_dwa.fact_apply_extend&lt;/u&gt;&lt;/b&gt;&lt;/span&gt;&lt;br&gt;&lt;/p&gt;" style="verticalAlign=top;align=left;overflow=fill;fontSize=12;fontFamily=Helvetica;html=1;rounded=0;shadow=0;comic=0;labelBackgroundColor=none;strokeWidth=1" vertex="1" parent="1">
          <mxGeometry x="600" y="1880" width="320" height="30" as="geometry" />
        </mxCell>
        <mxCell id="BQK6jB8z2mIOrAZ9bxbN-35" style="edgeStyle=orthogonalEdgeStyle;rounded=0;orthogonalLoop=1;jettySize=auto;html=1;entryX=0;entryY=1;entryDx=0;entryDy=0;" edge="1" parent="1" source="BQK6jB8z2mIOrAZ9bxbN-25" target="BQK6jB8z2mIOrAZ9bxbN-6">
          <mxGeometry relative="1" as="geometry">
            <Array as="points">
              <mxPoint x="1050" y="2005" />
              <mxPoint x="1050" y="1810" />
            </Array>
          </mxGeometry>
        </mxCell>
        <mxCell id="BQK6jB8z2mIOrAZ9bxbN-25" value="&lt;p style=&quot;margin: 4px 0px 0px ; text-align: center&quot;&gt;&lt;span style=&quot;font-size: 14px&quot;&gt;&lt;b&gt;&lt;u&gt;dwh_dwa.fact_register&lt;/u&gt;&lt;/b&gt;&lt;/span&gt;&lt;br&gt;&lt;/p&gt;" style="verticalAlign=top;align=left;overflow=fill;fontSize=12;fontFamily=Helvetica;html=1;rounded=0;shadow=0;comic=0;labelBackgroundColor=none;strokeWidth=1" vertex="1" parent="1">
          <mxGeometry x="600" y="1990" width="320" height="30" as="geometry" />
        </mxCell>
        <mxCell id="BQK6jB8z2mIOrAZ9bxbN-30" style="edgeStyle=orthogonalEdgeStyle;rounded=0;orthogonalLoop=1;jettySize=auto;html=1;entryX=0;entryY=0.25;entryDx=0;entryDy=0;" edge="1" parent="1" source="BQK6jB8z2mIOrAZ9bxbN-29" target="BQK6jB8z2mIOrAZ9bxbN-7">
          <mxGeometry relative="1" as="geometry">
            <Array as="points">
              <mxPoint x="1050" y="395" />
              <mxPoint x="1050" y="638" />
            </Array>
          </mxGeometry>
        </mxCell>
        <mxCell id="BQK6jB8z2mIOrAZ9bxbN-49" style="edgeStyle=orthogonalEdgeStyle;rounded=0;orthogonalLoop=1;jettySize=auto;html=1;entryX=0;entryY=0;entryDx=0;entryDy=0;jumpStyle=arc;" edge="1" parent="1" source="BQK6jB8z2mIOrAZ9bxbN-29" target="BQK6jB8z2mIOrAZ9bxbN-21">
          <mxGeometry relative="1" as="geometry">
            <Array as="points">
              <mxPoint x="550" y="410" />
              <mxPoint x="550" y="630" />
            </Array>
          </mxGeometry>
        </mxCell>
        <mxCell id="BQK6jB8z2mIOrAZ9bxbN-29" value="&lt;p style=&quot;margin: 0px ; margin-top: 4px ; text-align: center ; text-decoration: underline&quot;&gt;&lt;b&gt;&lt;font style=&quot;font-size: 14px&quot;&gt;dwh_dwd.&lt;/font&gt;&lt;/b&gt;&lt;b style=&quot;font-size: 14px&quot;&gt;&lt;u&gt;xyqb_i_apply_quota_record&lt;/u&gt;&lt;/b&gt;&lt;/p&gt;" style="verticalAlign=top;align=left;overflow=fill;fontSize=12;fontFamily=Helvetica;html=1;rounded=0;shadow=0;comic=0;labelBackgroundColor=none;strokeWidth=1" vertex="1" parent="1">
          <mxGeometry x="55" y="380" width="330" height="30" as="geometry" />
        </mxCell>
        <mxCell id="BQK6jB8z2mIOrAZ9bxbN-50" style="edgeStyle=orthogonalEdgeStyle;rounded=0;orthogonalLoop=1;jettySize=auto;html=1;entryX=0;entryY=0;entryDx=0;entryDy=0;jumpStyle=arc;" edge="1" parent="1" source="BQK6jB8z2mIOrAZ9bxbN-37" target="BQK6jB8z2mIOrAZ9bxbN-21">
          <mxGeometry relative="1" as="geometry">
            <Array as="points">
              <mxPoint x="540" y="445" />
              <mxPoint x="540" y="630" />
            </Array>
          </mxGeometry>
        </mxCell>
        <mxCell id="BQK6jB8z2mIOrAZ9bxbN-63" style="edgeStyle=orthogonalEdgeStyle;rounded=0;orthogonalLoop=1;jettySize=auto;html=1;entryX=0;entryY=0.25;entryDx=0;entryDy=0;jumpStyle=arc;" edge="1" parent="1" source="BQK6jB8z2mIOrAZ9bxbN-37" target="BQK6jB8z2mIOrAZ9bxbN-22">
          <mxGeometry relative="1" as="geometry">
            <Array as="points">
              <mxPoint x="488" y="460" />
              <mxPoint x="488" y="988" />
            </Array>
          </mxGeometry>
        </mxCell>
        <mxCell id="BQK6jB8z2mIOrAZ9bxbN-37" value="&lt;p style=&quot;margin: 4px 0px 0px ; text-align: center&quot;&gt;&lt;span style=&quot;font-size: 14px&quot;&gt;&lt;b&gt;&lt;u&gt;dwh_dwd.xyqb_i_repayment_plan&lt;/u&gt;&lt;/b&gt;&lt;/span&gt;&lt;br&gt;&lt;/p&gt;" style="verticalAlign=top;align=left;overflow=fill;fontSize=12;fontFamily=Helvetica;html=1;rounded=0;shadow=0;comic=0;labelBackgroundColor=none;strokeWidth=1" vertex="1" parent="1">
          <mxGeometry x="55" y="430" width="330" height="30" as="geometry" />
        </mxCell>
        <mxCell id="BQK6jB8z2mIOrAZ9bxbN-51" style="edgeStyle=orthogonalEdgeStyle;rounded=0;orthogonalLoop=1;jettySize=auto;html=1;entryX=0;entryY=0.25;entryDx=0;entryDy=0;jumpStyle=arc;" edge="1" parent="1" source="BQK6jB8z2mIOrAZ9bxbN-38" target="BQK6jB8z2mIOrAZ9bxbN-21">
          <mxGeometry relative="1" as="geometry">
            <Array as="points">
              <mxPoint x="530" y="495" />
              <mxPoint x="530" y="638" />
            </Array>
          </mxGeometry>
        </mxCell>
        <mxCell id="BQK6jB8z2mIOrAZ9bxbN-64" style="edgeStyle=orthogonalEdgeStyle;rounded=0;jumpStyle=arc;orthogonalLoop=1;jettySize=auto;html=1;entryX=0;entryY=0.75;entryDx=0;entryDy=0;exitX=1;exitY=0.75;exitDx=0;exitDy=0;" edge="1" parent="1" source="BQK6jB8z2mIOrAZ9bxbN-38" target="BQK6jB8z2mIOrAZ9bxbN-22">
          <mxGeometry relative="1" as="geometry">
            <Array as="points">
              <mxPoint x="470" y="503" />
              <mxPoint x="470" y="1003" />
            </Array>
          </mxGeometry>
        </mxCell>
        <mxCell id="BQK6jB8z2mIOrAZ9bxbN-38" value="&lt;p style=&quot;margin: 4px 0px 0px ; text-align: center&quot;&gt;&lt;span style=&quot;font-size: 14px&quot;&gt;&lt;b&gt;&lt;u&gt;dwh_dwd.xyqb_i_repayment_record&lt;/u&gt;&lt;/b&gt;&lt;/span&gt;&lt;br&gt;&lt;/p&gt;" style="verticalAlign=top;align=left;overflow=fill;fontSize=12;fontFamily=Helvetica;html=1;rounded=0;shadow=0;comic=0;labelBackgroundColor=none;strokeWidth=1" vertex="1" parent="1">
          <mxGeometry x="55" y="480" width="330" height="30" as="geometry" />
        </mxCell>
        <mxCell id="BQK6jB8z2mIOrAZ9bxbN-52" style="edgeStyle=orthogonalEdgeStyle;rounded=0;orthogonalLoop=1;jettySize=auto;html=1;entryX=0;entryY=0.25;entryDx=0;entryDy=0;jumpStyle=arc;" edge="1" parent="1" source="BQK6jB8z2mIOrAZ9bxbN-39" target="BQK6jB8z2mIOrAZ9bxbN-21">
          <mxGeometry relative="1" as="geometry">
            <Array as="points">
              <mxPoint x="520" y="545" />
              <mxPoint x="520" y="638" />
            </Array>
          </mxGeometry>
        </mxCell>
        <mxCell id="BQK6jB8z2mIOrAZ9bxbN-39" value="&lt;p style=&quot;margin: 4px 0px 0px ; text-align: center&quot;&gt;&lt;span style=&quot;font-size: 14px&quot;&gt;&lt;b&gt;&lt;u&gt;dwh_dwd.xyqb_i_repayment_order&lt;/u&gt;&lt;/b&gt;&lt;/span&gt;&lt;br&gt;&lt;/p&gt;" style="verticalAlign=top;align=left;overflow=fill;fontSize=12;fontFamily=Helvetica;html=1;rounded=0;shadow=0;comic=0;labelBackgroundColor=none;strokeWidth=1" vertex="1" parent="1">
          <mxGeometry x="55" y="530" width="330" height="30" as="geometry" />
        </mxCell>
        <mxCell id="BQK6jB8z2mIOrAZ9bxbN-53" style="edgeStyle=orthogonalEdgeStyle;rounded=0;orthogonalLoop=1;jettySize=auto;html=1;entryX=0;entryY=0.5;entryDx=0;entryDy=0;jumpStyle=arc;" edge="1" parent="1" source="BQK6jB8z2mIOrAZ9bxbN-40" target="BQK6jB8z2mIOrAZ9bxbN-21">
          <mxGeometry relative="1" as="geometry">
            <Array as="points">
              <mxPoint x="510" y="593" />
              <mxPoint x="510" y="645" />
            </Array>
          </mxGeometry>
        </mxCell>
        <mxCell id="BQK6jB8z2mIOrAZ9bxbN-40" value="&lt;p style=&quot;margin: 4px 0px 0px ; text-align: center&quot;&gt;&lt;span style=&quot;font-size: 14px&quot;&gt;&lt;b&gt;&lt;u&gt;dwh_dwd.xyqb_i_pay_order&lt;/u&gt;&lt;/b&gt;&lt;/span&gt;&lt;br&gt;&lt;/p&gt;" style="verticalAlign=top;align=left;overflow=fill;fontSize=12;fontFamily=Helvetica;html=1;rounded=0;shadow=0;comic=0;labelBackgroundColor=none;strokeWidth=1" vertex="1" parent="1">
          <mxGeometry x="55" y="578" width="330" height="30" as="geometry" />
        </mxCell>
        <mxCell id="BQK6jB8z2mIOrAZ9bxbN-60" style="edgeStyle=orthogonalEdgeStyle;rounded=0;orthogonalLoop=1;jettySize=auto;html=1;entryX=0;entryY=0.5;entryDx=0;entryDy=0;jumpStyle=arc;" edge="1" parent="1" source="BQK6jB8z2mIOrAZ9bxbN-41" target="BQK6jB8z2mIOrAZ9bxbN-21">
          <mxGeometry relative="1" as="geometry" />
        </mxCell>
        <mxCell id="BQK6jB8z2mIOrAZ9bxbN-41" value="&lt;p style=&quot;margin: 4px 0px 0px ; text-align: center&quot;&gt;&lt;span style=&quot;font-size: 14px&quot;&gt;&lt;b&gt;&lt;u&gt;dwh_dwd.xyqb_i_fund_behalf_plan&lt;/u&gt;&lt;/b&gt;&lt;/span&gt;&lt;br&gt;&lt;/p&gt;" style="verticalAlign=top;align=left;overflow=fill;fontSize=12;fontFamily=Helvetica;html=1;rounded=0;shadow=0;comic=0;labelBackgroundColor=none;strokeWidth=1" vertex="1" parent="1">
          <mxGeometry x="55" y="630" width="330" height="30" as="geometry" />
        </mxCell>
        <mxCell id="BQK6jB8z2mIOrAZ9bxbN-59" style="edgeStyle=orthogonalEdgeStyle;rounded=0;orthogonalLoop=1;jettySize=auto;html=1;entryX=0;entryY=0.75;entryDx=0;entryDy=0;jumpStyle=arc;" edge="1" parent="1" source="BQK6jB8z2mIOrAZ9bxbN-42" target="BQK6jB8z2mIOrAZ9bxbN-21">
          <mxGeometry relative="1" as="geometry">
            <Array as="points">
              <mxPoint x="500" y="685" />
              <mxPoint x="500" y="653" />
            </Array>
          </mxGeometry>
        </mxCell>
        <mxCell id="BQK6jB8z2mIOrAZ9bxbN-42" value="&lt;p style=&quot;margin: 4px 0px 0px ; text-align: center&quot;&gt;&lt;span style=&quot;font-size: 14px&quot;&gt;&lt;b&gt;&lt;u&gt;dwh_dwd.xyqb_i_channel_behalf_detail&lt;/u&gt;&lt;/b&gt;&lt;/span&gt;&lt;br&gt;&lt;/p&gt;" style="verticalAlign=top;align=left;overflow=fill;fontSize=12;fontFamily=Helvetica;html=1;rounded=0;shadow=0;comic=0;labelBackgroundColor=none;strokeWidth=1" vertex="1" parent="1">
          <mxGeometry x="55" y="670" width="330" height="30" as="geometry" />
        </mxCell>
        <mxCell id="BQK6jB8z2mIOrAZ9bxbN-58" style="edgeStyle=orthogonalEdgeStyle;rounded=0;orthogonalLoop=1;jettySize=auto;html=1;entryX=0;entryY=0.75;entryDx=0;entryDy=0;jumpStyle=arc;" edge="1" parent="1" source="BQK6jB8z2mIOrAZ9bxbN-43" target="BQK6jB8z2mIOrAZ9bxbN-21">
          <mxGeometry relative="1" as="geometry">
            <Array as="points">
              <mxPoint x="510" y="729" />
              <mxPoint x="510" y="653" />
            </Array>
          </mxGeometry>
        </mxCell>
        <mxCell id="BQK6jB8z2mIOrAZ9bxbN-43" value="&lt;p style=&quot;margin: 4px 0px 0px ; text-align: center&quot;&gt;&lt;span style=&quot;font-size: 14px&quot;&gt;&lt;b&gt;&lt;u&gt;dwh_dwd.payment_center_i_repay_order&lt;/u&gt;&lt;/b&gt;&lt;/span&gt;&lt;br&gt;&lt;/p&gt;" style="verticalAlign=top;align=left;overflow=fill;fontSize=12;fontFamily=Helvetica;html=1;rounded=0;shadow=0;comic=0;labelBackgroundColor=none;strokeWidth=1" vertex="1" parent="1">
          <mxGeometry x="55" y="714" width="330" height="30" as="geometry" />
        </mxCell>
        <mxCell id="BQK6jB8z2mIOrAZ9bxbN-57" style="edgeStyle=orthogonalEdgeStyle;rounded=0;orthogonalLoop=1;jettySize=auto;html=1;entryX=0;entryY=0.75;entryDx=0;entryDy=0;jumpStyle=arc;" edge="1" parent="1" source="BQK6jB8z2mIOrAZ9bxbN-44" target="BQK6jB8z2mIOrAZ9bxbN-21">
          <mxGeometry relative="1" as="geometry">
            <Array as="points">
              <mxPoint x="520" y="775" />
              <mxPoint x="520" y="653" />
            </Array>
          </mxGeometry>
        </mxCell>
        <mxCell id="BQK6jB8z2mIOrAZ9bxbN-44" value="&lt;p style=&quot;margin: 4px 0px 0px ; text-align: center&quot;&gt;&lt;span style=&quot;font-size: 14px&quot;&gt;&lt;b&gt;&lt;u&gt;dwh_dwd.payment_center_i_pay_approach&lt;/u&gt;&lt;/b&gt;&lt;/span&gt;&lt;br&gt;&lt;/p&gt;" style="verticalAlign=top;align=left;overflow=fill;fontSize=12;fontFamily=Helvetica;html=1;rounded=0;shadow=0;comic=0;labelBackgroundColor=none;strokeWidth=1" vertex="1" parent="1">
          <mxGeometry x="55" y="760" width="330" height="30" as="geometry" />
        </mxCell>
        <mxCell id="BQK6jB8z2mIOrAZ9bxbN-56" style="edgeStyle=orthogonalEdgeStyle;rounded=0;orthogonalLoop=1;jettySize=auto;html=1;entryX=0;entryY=0.75;entryDx=0;entryDy=0;jumpStyle=arc;" edge="1" parent="1" source="BQK6jB8z2mIOrAZ9bxbN-45" target="BQK6jB8z2mIOrAZ9bxbN-21">
          <mxGeometry relative="1" as="geometry">
            <Array as="points">
              <mxPoint x="530" y="822" />
              <mxPoint x="530" y="653" />
            </Array>
          </mxGeometry>
        </mxCell>
        <mxCell id="BQK6jB8z2mIOrAZ9bxbN-45" value="&lt;p style=&quot;margin: 4px 0px 0px ; text-align: center&quot;&gt;&lt;span style=&quot;font-size: 14px&quot;&gt;&lt;b&gt;&lt;u&gt;dwh_dwd.xyqb_i_loan_account_ext&lt;/u&gt;&lt;/b&gt;&lt;/span&gt;&lt;br&gt;&lt;/p&gt;" style="verticalAlign=top;align=left;overflow=fill;fontSize=12;fontFamily=Helvetica;html=1;rounded=0;shadow=0;comic=0;labelBackgroundColor=none;strokeWidth=1" vertex="1" parent="1">
          <mxGeometry x="55" y="807" width="330" height="30" as="geometry" />
        </mxCell>
        <mxCell id="BQK6jB8z2mIOrAZ9bxbN-55" style="edgeStyle=orthogonalEdgeStyle;rounded=0;orthogonalLoop=1;jettySize=auto;html=1;entryX=0;entryY=1;entryDx=0;entryDy=0;jumpStyle=arc;" edge="1" parent="1" source="BQK6jB8z2mIOrAZ9bxbN-47" target="BQK6jB8z2mIOrAZ9bxbN-21">
          <mxGeometry relative="1" as="geometry">
            <Array as="points">
              <mxPoint x="540" y="875" />
              <mxPoint x="540" y="660" />
            </Array>
          </mxGeometry>
        </mxCell>
        <mxCell id="BQK6jB8z2mIOrAZ9bxbN-47" value="&lt;p style=&quot;margin: 4px 0px 0px ; text-align: center&quot;&gt;&lt;span style=&quot;font-size: 14px&quot;&gt;&lt;b&gt;&lt;u&gt;dwh_dwd.xyqb_i_all_repaid_record&lt;/u&gt;&lt;/b&gt;&lt;/span&gt;&lt;br&gt;&lt;/p&gt;" style="verticalAlign=top;align=left;overflow=fill;fontSize=12;fontFamily=Helvetica;html=1;rounded=0;shadow=0;comic=0;labelBackgroundColor=none;strokeWidth=1" vertex="1" parent="1">
          <mxGeometry x="55" y="860" width="330" height="30" as="geometry" />
        </mxCell>
        <mxCell id="BQK6jB8z2mIOrAZ9bxbN-54" style="edgeStyle=orthogonalEdgeStyle;rounded=0;orthogonalLoop=1;jettySize=auto;html=1;entryX=0;entryY=1;entryDx=0;entryDy=0;jumpStyle=arc;" edge="1" parent="1" source="BQK6jB8z2mIOrAZ9bxbN-48" target="BQK6jB8z2mIOrAZ9bxbN-21">
          <mxGeometry relative="1" as="geometry">
            <Array as="points">
              <mxPoint x="550" y="925" />
              <mxPoint x="550" y="660" />
            </Array>
          </mxGeometry>
        </mxCell>
        <mxCell id="BQK6jB8z2mIOrAZ9bxbN-48" value="&lt;p style=&quot;margin: 4px 0px 0px ; text-align: center&quot;&gt;&lt;span style=&quot;font-size: 14px&quot;&gt;&lt;b&gt;&lt;u&gt;dwh_dwd.xyqb_i_fund_behalf_task_config&lt;/u&gt;&lt;/b&gt;&lt;/span&gt;&lt;br&gt;&lt;/p&gt;" style="verticalAlign=top;align=left;overflow=fill;fontSize=12;fontFamily=Helvetica;html=1;rounded=0;shadow=0;comic=0;labelBackgroundColor=none;strokeWidth=1" vertex="1" parent="1">
          <mxGeometry x="55" y="910" width="330" height="30" as="geometry" />
        </mxCell>
        <mxCell id="BQK6jB8z2mIOrAZ9bxbN-62" style="edgeStyle=orthogonalEdgeStyle;rounded=0;orthogonalLoop=1;jettySize=auto;html=1;entryX=0;entryY=0;entryDx=0;entryDy=0;jumpStyle=arc;" edge="1" parent="1" source="BQK6jB8z2mIOrAZ9bxbN-61" target="BQK6jB8z2mIOrAZ9bxbN-19">
          <mxGeometry relative="1" as="geometry">
            <Array as="points">
              <mxPoint x="550" y="1085" />
              <mxPoint x="550" y="1169" />
            </Array>
          </mxGeometry>
        </mxCell>
        <mxCell id="BQK6jB8z2mIOrAZ9bxbN-61" value="&lt;p style=&quot;margin: 4px 0px 0px ; text-align: center&quot;&gt;&lt;span style=&quot;font-size: 14px&quot;&gt;&lt;b&gt;&lt;u&gt;dwh_dwd.xyqb_i_loan_application_manifest_history&lt;/u&gt;&lt;/b&gt;&lt;/span&gt;&lt;br&gt;&lt;/p&gt;" style="verticalAlign=top;align=left;overflow=fill;fontSize=12;fontFamily=Helvetica;html=1;rounded=0;shadow=0;comic=0;labelBackgroundColor=none;strokeWidth=1" vertex="1" parent="1">
          <mxGeometry x="55" y="1070" width="397" height="30" as="geometry" />
        </mxCell>
      </root>
    </mxGraphModel>
  </diagram>
</mxfile>
